# xmcd CD database file
#
# Track frame offsets:
#	150
#	22393
#	43266
#	65148
#	106058
#	144518
#	163998
#	196446
#	254408
#	290948
#
# Disc length: 4461 seconds
#
# Revision: 0
# Processed by: cddbd v1.5.2PL0 Copyright (c) Steve Scherf et al.
# Submitted via: CDex 1.70beta2
#
DISCID=a8116b0a
DTITLE=Art Blakey - Modern Jazz Hard Bop 1957 CD 046
DYEAR=2008
DGENRE=Jazz
TTITLE0=Almost Like Being In Love
TTITLE1=There But For You I Go
TTITLE2=They Call The Wind Maria
TTITLE3=On The Street Where You Live
TTITLE4=I Talk To The Trees
TTITLE5=I Could Have Danced All Night
TTITLE6=Off The Wall
TTITLE7=A Night In Tunisia
TTITLE8=Couldn't It Be You?
TTITLE9=Theory Of Art
EXTD=YEAR: 2008
EXTT0=
EXTT1=
EXTT2=
EXTT3=
EXTT4=
EXTT5=
EXTT6=
EXTT7=
EXTT8=
EXTT9=
PLAYORDER=
